<svg width="19" height="19" viewBox="0 0 19 19" fill="none" xmlns="http://www.w3.org/2000/svg">
<path d="M2.15966 3.052C2.15966 2.81534 2.25368 2.58837 2.42102 2.42102C2.58837 2.25368 2.81534 2.15966 3.052 2.15966H8.55947C8.79611 2.15972 9.02304 2.25376 9.19035 2.42112L16.329 9.55978C16.4963 9.72711 16.5903 9.95404 16.5903 10.1907C16.5903 10.4273 16.4963 10.6542 16.329 10.8215L10.8215 16.329C10.6542 16.4963 10.4273 16.5903 10.1907 16.5903C9.95404 16.5903 9.72711 16.4963 9.55978 16.329L2.42112 9.19035C2.25376 9.02304 2.15971 8.79611 2.15966 8.55947V3.052ZM3.052 0.375C2.34201 0.375 1.66111 0.65704 1.15907 1.15907C0.65704 1.66111 0.375 2.34201 0.375 3.052V8.55947C0.375388 9.26909 0.657509 9.94952 1.15936 10.4512L8.29802 17.5899C8.80003 18.0917 9.48081 18.3737 10.1907 18.3737C10.9005 18.3737 11.5813 18.0917 12.0833 17.5899L17.5908 12.0842C17.8394 11.8356 18.0366 11.5405 18.1712 11.2156C18.3057 10.8908 18.375 10.5427 18.375 10.1911C18.375 9.83951 18.3057 9.49137 18.1712 9.16655C18.0366 8.84174 17.8394 8.54661 17.5908 8.29802L10.4521 1.15936C9.95019 0.657291 9.2694 0.375152 8.55947 0.375H3.052ZM4.83666 3.94433C4.6 3.94433 4.37303 4.03834 4.20569 4.20569C4.03834 4.37303 3.94433 4.6 3.94433 4.83666C3.94433 5.07332 4.03834 5.30029 4.20569 5.46764C4.37303 5.63498 4.6 5.72899 4.83666 5.72899H4.84558C5.08225 5.72899 5.30921 5.63498 5.47656 5.46764C5.6439 5.30029 5.73792 5.07332 5.73792 4.83666C5.73792 4.6 5.6439 4.37303 5.47656 4.20569C5.30921 4.03834 5.08225 3.94433 4.84558 3.94433H4.83666Z" fill="#45BF6B" stroke="#45BF6B" stroke-width="0.75"/>
</svg>
