<svg width="21" height="18" viewBox="0 0 21 18" fill="none" xmlns="http://www.w3.org/2000/svg">
<path d="M13.9412 8.05884C15.8941 8.05884 17.4588 6.48236 17.4588 4.52942C17.4588 2.57647 15.8941 1 13.9412 1C13.5647 1 13.2 1.05882 12.8706 1.16471C13.5412 2.11765 13.9294 3.27059 13.9294 4.52942C13.9294 5.78824 13.5294 6.92942 12.8706 7.89413C13.2 8.00001 13.5647 8.05884 13.9412 8.05884ZM15.8471 10.6C16.8236 11.4588 17.4706 12.553 17.4706 13.9412V15.7059C17.4706 15.9059 17.4471 16.1059 17.4118 16.2941H20.4118C20.7412 16.2941 21 16.0353 21 15.7059V13.9412C21 12.1294 18.2118 11.0118 15.8471 10.6Z" fill="#1A73E9"/>
<path d="M11.5765 4.52942C11.5765 6.48236 10.0118 8.05884 8.05884 8.05884C6.10589 8.05884 4.52942 6.48236 4.52942 4.52942C4.52942 2.57647 6.10589 1 8.05884 1C10.0118 1 11.5765 2.57647 11.5765 4.52942Z" stroke="#1A73E9" stroke-width="2"/>
<path d="M1 13.9412C1 11.5883 5.70589 10.4118 8.05884 10.4118C10.4118 10.4118 15.1177 11.5883 15.1177 13.9412V15.1177C15.1177 15.7647 14.5883 16.2941 13.9412 16.2941H2.17647C1.52941 16.2941 1 15.7647 1 15.1177V13.9412Z" stroke="#1A73E9" stroke-width="2"/>
</svg>
